<?xml version="1.0" encoding="utf-8"?>
<!-- Generator: Adobe Illustrator 23.0.2, SVG Export Plug-In . SVG Version: 6.00 Build 0)  -->
<svg version="1.1" id="Слой_1" xmlns="http://www.w3.org/2000/svg" xmlns:xlink="http://www.w3.org/1999/xlink" x="0px" y="0px"
	 viewBox="0 0 2494.95 2000" style="enable-background:new 0 0 2494.95 2000;" xml:space="preserve">
<style type="text/css">
	.st0{fill:#E8B310;}
	.st1{fill:#DCBA55;}
	.st2{fill:url(#SVGID_1_);}
	.st3{fill:#EFE094;}
	.st4{fill:#E4C955;}
	.st5{fill:#F7EFCE;}
	.st6{opacity:0.24;fill:#3F444F;}
	.st7{fill:#1F5275;}
	.st8{fill:#0B3C5D;}
	.st9{fill:#112A38;}
	.st10{opacity:0.3;fill:#C2C2C2;}
</style>
<path class="st0" d="M1850.05,443.28H1157.5c-177.63,11.82-176.85,207.5-176.85,207.5l0,0v935.06h693.41V650.78
	C1674.07,650.78,1677.35,454.45,1850.05,443.28z"/>
<g>
	<rect x="932.33" y="662.6" class="st1" width="8" height="719.68"/>
</g>
<g>
	<path class="st1" d="M1731.81,333.57h-423V99.25h423V333.57z M1316.81,325.57h407V107.25h-407V325.57z"/>
</g>
<g>
	<path class="st1" d="M940.33,577.96h-423V283.22h423V577.96z M525.34,569.96h407V291.22h-407V569.96z"/>
</g>
<g>
	<path class="st1" d="M2138.92,1047.89h-423v-235.2h423V1047.89z M1723.93,1039.89h407v-219.2h-407V1039.89z"/>
</g>
<linearGradient id="SVGID_1_" gradientUnits="userSpaceOnUse" x1="1570.4045" y1="1431.55" x2="1084.4908" y2="288.9941">
	<stop  offset="0" style="stop-color:#E8D16F"/>
	<stop  offset="1" style="stop-color:#E8D155"/>
</linearGradient>
<path class="st2" d="M1822.36,430.59c-172.7,11.16-175.98,207.5-175.98,207.5v935.06H952.97V638.09c0,0-0.79-195.68,176.85-207.5
	H1822.36z"/>
<rect x="1044.02" y="674.86" class="st3" width="476.28" height="42.02"/>
<rect x="1044.02" y="772.04" class="st3" width="406.68" height="29.77"/>
<rect x="1044.02" y="850.62" class="st3" width="204.43" height="44.21"/>
<rect x="1308.87" y="850.62" class="st3" width="211.44" height="44.21"/>
<rect x="1044.02" y="935.77" class="st3" width="325.69" height="31.52"/>
<rect x="1044.02" y="1014.56" class="st3" width="366.95" height="17.51"/>
<rect x="1044.02" y="1093.36" class="st3" width="441.26" height="17.51"/>
<g>
	<path class="st3" d="M1249.96,1269.96h-207.43v-99.31h207.43V1269.96z M1045.52,1266.96h201.43v-93.31h-201.43V1266.96z"/>
</g>
<rect x="1299.68" y="1172.16" class="st3" width="185.61" height="22.76"/>
<rect x="1299.68" y="1220.31" class="st3" width="131.56" height="22.76"/>
<rect x="1044.02" y="1329.75" class="st3" width="396.83" height="17.51"/>
<rect x="1044.02" y="1408.55" class="st3" width="209.03" height="17.51"/>
<g>
	<g>
		<g>
			<g>
				<g>
					<g>
						<path class="st4" d="M1824.98,957.69l-20.45-33.48c-1.68-2.75-0.81-6.33,1.93-8.01c2.75-1.68,6.33-0.81,8.01,1.93l14.46,23.68
							l38.44-22.75c2.77-1.64,6.34-0.72,7.98,2.05c1.64,2.77,0.72,6.34-2.05,7.98L1824.98,957.69z"/>
					</g>
				</g>
			</g>
		</g>
	</g>
	<g>
		<path class="st4" d="M1838.71,1009.31c-40.55,0-73.54-32.99-73.54-73.54c0-40.55,32.99-73.54,73.54-73.54
			c40.55,0,73.54,32.99,73.54,73.54C1912.25,976.32,1879.26,1009.31,1838.71,1009.31z M1838.71,872.73
			c-34.76,0-63.04,28.28-63.04,63.04c0,34.76,28.28,63.04,63.04,63.04c34.76,0,63.04-28.28,63.04-63.04
			C1901.75,901.01,1873.47,872.73,1838.71,872.73z"/>
	</g>
</g>
<polygon class="st4" points="1486.16,191.89 1487.6,222.8 1499.87,222.23 1497.46,170.38 1444.5,172.84 1445.07,185.11 
	1477.08,183.62 1420.66,245.55 1361.95,192.06 1353.68,201.14 1421.47,262.9 "/>
<g>
	<path class="st4" d="M670.18,391.49c-1.2-1.34-2.96-2.78-5.29-4.32c-2.33-1.54-5.03-3.02-8.09-4.43c-3.07-1.41-6.43-2.62-10.1-3.64
		c-3.67-1.01-7.43-1.66-11.3-1.94l-0.13,41.43l3.8,0.81c7.2,1.76,13.7,3.72,19.49,5.87c5.8,2.15,10.69,4.77,14.69,7.85
		c3.99,3.08,7.08,6.86,9.27,11.34c2.19,4.48,3.27,9.92,3.25,16.32c-0.02,7.07-1.31,13.11-3.86,18.1c-2.55,5-6.07,9.16-10.55,12.47
		c-4.48,3.32-9.69,5.81-15.64,7.45c-5.94,1.65-12.32,2.53-19.12,2.64l-0.07,21.01l-10.41-0.03l0.07-21.42
		c-9.6-0.7-18.74-2.63-27.4-5.79c-8.66-3.16-16.59-7.56-23.77-13.19l10.27-19.18c1.46,1.61,3.59,3.35,6.39,5.22
		c2.8,1.88,6.06,3.69,9.79,5.44c3.73,1.75,7.83,3.3,12.29,4.64c4.46,1.35,9.1,2.3,13.9,2.85l0.14-41.43
		c-0.8-0.27-1.63-0.51-2.5-0.71c-0.87-0.2-1.7-0.44-2.5-0.71c-7.07-1.89-13.23-3.88-18.49-5.96c-5.27-2.08-9.63-4.6-13.09-7.55
		c-3.46-2.94-6.08-6.39-7.87-10.33c-1.79-3.94-2.67-8.72-2.66-14.32c0.02-6.54,1.17-12.34,3.46-17.4c2.28-5.06,5.5-9.42,9.65-13.08
		c4.15-3.65,8.99-6.51,14.54-8.56c5.54-2.05,11.65-3.33,18.33-3.84l0.07-20.21l10.41,0.03l-0.07,20.21c8.67,0.56,16.67,2.32,24,5.28
		c7.33,2.96,13.79,6.52,19.38,10.67L670.18,391.49z M604.12,396.48c-0.02,5.6,1.94,9.81,5.86,12.63c3.92,2.81,9.89,5.3,17.89,7.46
		l0.13-39.43c-8.14,0.37-14.15,2.26-18.03,5.64C606.08,386.18,604.14,390.74,604.12,396.48z M661.74,463.11
		c0.02-5.87-2.3-10.32-6.96-13.33c-4.66-3.02-11.19-5.74-19.59-8.17l-0.13,39.63c8.54-0.1,15.12-1.68,19.73-4.74
		C659.41,473.45,661.72,468.99,661.74,463.11z"/>
</g>
<rect x="733.65" y="367.13" class="st5" width="166.13" height="23.64"/>
<rect x="733.65" y="418.77" class="st5" width="130.58" height="23.64"/>
<rect x="733.65" y="470.41" class="st5" width="146.51" height="23.64"/>
<rect x="1942.75" y="892.65" class="st5" width="118.7" height="23.64"/>
<rect x="1942.75" y="944.3" class="st5" width="133.19" height="23.64"/>
<rect x="1535.63" y="152.94" class="st5" width="151.03" height="23.64"/>
<rect x="1535.63" y="204.59" class="st5" width="118.7" height="23.64"/>
<rect x="1535.63" y="256.23" class="st5" width="133.19" height="23.64"/>
<g>
	<polygon class="st5" points="1826.36,1204.17 1698.04,1204.17 1698.04,1196.17 1818.36,1196.17 1818.36,1053.08 1826.36,1053.08 	
		"/>
</g>
<g>
	<polygon class="st5" points="1210.87,416.57 1202.87,416.57 1202.87,374.94 1481.29,374.94 1481.29,345.66 1489.29,345.66 
		1489.29,382.94 1210.87,382.94 	"/>
</g>
<g>
	<polygon class="st5" points="899.78,907.6 753.73,907.6 753.73,592.56 761.73,592.56 761.73,899.6 899.78,899.6 	"/>
</g>
<g>
	<path class="st1" d="M1698.12,779.7h-8v-95.21c-0.11-1.58-10.26-184.21,143.84-210.79l1.36,7.88
		c-147.09,25.36-137.33,200.87-137.21,202.64L1698.12,779.7z"/>
</g>
<g>
	<polygon class="st1" points="2159.28,962.68 2151.28,962.68 2151.28,801.21 1977.99,801.21 1977.99,793.21 2159.28,793.21 	"/>
</g>
<g>
	<polygon class="st1" points="659.33,601.99 494.79,601.99 494.79,446.96 502.79,446.96 502.79,593.99 659.33,593.99 	"/>
</g>
<g>
	<polygon class="st1" points="1297.7,204.59 1289.7,204.59 1289.7,82.51 1493.89,82.51 1493.89,90.51 1297.7,90.51 	"/>
</g>
<g>
	<polygon class="st1" points="1702.04,1613.36 1552.26,1613.36 1552.26,1605.36 1694.04,1605.36 1694.04,1378.23 1702.04,1378.23 	
		"/>
</g>
<g>
	<path class="st3" d="M1587.38,1454.7h-130.42v-130.42h130.42V1454.7z M1468.96,1442.7h106.42v-106.42h-106.42V1442.7z"/>
</g>
<g>
	<polygon class="st3" points="1524.23,1416.56 1478.43,1373.38 1492.15,1358.83 1525.14,1389.93 1597.13,1330.78 1609.83,1346.23 	
		"/>
</g>
<path class="st6" d="M1482.56,1079.3c-97.84-168.49-313.77-225.78-482.29-127.91c-16.92,9.82-32.7,20.83-47.3,32.86v80.92
	c21.09-24.77,46.67-46.41,76.41-63.7c140.84-81.79,321.31-33.91,403.1,106.93c25.11,43.23,37.98,90.2,39.71,136.9
	c0.13,3.65,0.21,7.28,0.21,10.93c0,101.65-52.61,200.56-146.85,255.28c-125.29,72.73-281.96,42.89-372.58-63.75v81
	c21.3,17.6,44.47,32.44,68.89,44.39h311.22c7.28-3.57,14.45-7.43,21.56-11.56C1523.14,1463.75,1580.43,1247.82,1482.56,1079.3z"/>
<rect x="304.61" y="1645.26" transform="matrix(-0.7682 0.6402 -0.6402 -0.7682 2127.0771 2617.3035)" class="st7" width="570.2" height="96.94"/>
<rect x="805.2" y="1464.66" transform="matrix(-0.7682 0.6402 -0.6402 -0.7682 2411.9226 2129.6191)" class="st8" width="30.46" height="73.58"/>
<path class="st9" d="M781.06,1433.67c97.85,168.51,313.78,225.78,482.29,127.93c168.51-97.86,225.78-313.78,127.93-482.29
	c-97.86-168.51-313.78-225.78-482.29-127.93C740.48,1049.23,683.2,1265.16,781.06,1433.67z M831.16,1404.57
	c-43.4-74.74-50.29-160.65-26.14-237.05c21.35-67.55,66.97-127.66,133.06-166.04c140.84-81.79,321.31-33.91,403.09,106.92
	c25.1,43.23,37.99,90.2,39.73,136.89c0,0,0,0,0,0c3.92,105.43-49.04,209.51-146.64,266.2
	C1093.42,1593.28,912.95,1545.41,831.16,1404.57z"/>
<path class="st10" d="M805.02,1167.52c0,0,307.11-233.19,575.88,77.77c0,0,0,0,0,0c-1.73-46.7-14.62-93.66-39.73-136.89
	c-81.79-140.83-262.25-188.7-403.09-106.92C871.99,1039.86,826.37,1099.97,805.02,1167.52z"/>
</svg>
